<?xml version="1.0" standalone="no"?><!DOCTYPE svg PUBLIC "-//W3C//DTD SVG 1.1//EN" "http://www.w3.org/Graphics/SVG/1.1/DTD/svg11.dtd"><svg t="1741579794611" class="icon" viewBox="0 0 1575 1024" version="1.1" xmlns="http://www.w3.org/2000/svg" p-id="8179" width="49.21875" height="32" xmlns:xlink="http://www.w3.org/1999/xlink"><path d="M669.538462 0l-3.101539 0.029538c-71.138462 1.378462-130.727385 49.900308-148.804923 115.633231l-0.669538 2.491077H177.230769C79.350154 118.153846 0 197.504 0 295.384615v551.384616c0 97.880615 79.350154 177.230769 177.230769 177.230769h1220.923077c97.880615 0 177.230769-79.350154 177.230769-177.230769V295.384615l-0.029538-3.24923C1573.622154 195.741538 1494.951385 118.153846 1398.153846 118.153846h-339.741538l-0.659693-2.491077C1039.419077 48.984615 978.353231 0 905.846154 0H669.538462z m236.307692 118.153846a39.384615 39.384615 0 0 1 39.384615 39.384616v39.384615a39.384615 39.384615 0 0 0 39.384616 39.384615h413.538461a59.076923 59.076923 0 0 1 59.076923 59.076923v551.384616a59.076923 59.076923 0 0 1-59.076923 59.076923H177.230769a59.076923 59.076923 0 0 1-59.076923-59.076923V295.384615a59.076923 59.076923 0 0 1 59.076923-59.076923h413.538462a39.384615 39.384615 0 0 0 39.384615-39.384615v-39.384615a39.384615 39.384615 0 0 1 39.384616-39.384616h236.307692z" fill="#222222" p-id="8180"></path><path d="M1043.692308 590.769231a59.076923 59.076923 0 0 1 59.037538 56.861538L1102.769231 649.846154v39.384615l-0.265846 5.691077a59.086769 59.086769 0 0 1-56.516923 53.346462L1043.692308 748.307692h-39.384616l-5.691077-0.265846a59.086769 59.086769 0 0 1-53.346461-56.516923L945.230769 689.230769v-39.384615l0.265846-5.691077a59.086769 59.086769 0 0 1 56.516923-53.346462L1004.307692 590.769231h39.384616z" fill="#1B1B1B" p-id="8181"></path><path d="M1240.615385 433.230769a59.076923 59.076923 0 0 1 59.037538 56.861539L1299.692308 492.307692v39.384616l-0.265846 5.691077a59.086769 59.086769 0 0 1-56.516924 53.346461L1240.615385 590.769231h-39.384616l-5.691077-0.265846a59.086769 59.086769 0 0 1-53.346461-56.516923L1142.153846 531.692308v-39.384616l0.265846-5.691077a59.086769 59.086769 0 0 1 56.516923-53.346461L1201.230769 433.230769h39.384616zM452.923077 354.461538a48.137846 48.137846 0 0 1 48.088615 45.991385l0.049231 2.146462v120.290461l120.339692 0.049231 5.612308 0.324923a48.147692 48.147692 0 0 1-3.465846 95.901538l-2.146462 0.049231H501.070769V739.544615l-0.324923 5.612308a48.147692 48.147692 0 0 1-95.901538-3.465846l-0.049231-2.146462V619.224615H284.455385l-5.612308-0.324923a48.147692 48.147692 0 0 1 3.465846-95.901538l2.146462-0.049231H404.775385V402.609231l0.324923-5.612308A48.147692 48.147692 0 0 1 452.923077 354.461538z" fill="#F5AC2B" p-id="8182"></path></svg>